<svg width="112" height="112" viewBox="0 0 112 112" fill="none" xmlns="http://www.w3.org/2000/svg">
<path d="M106.58 95.265H5.29424C2.71501 95.265 0.615234 93.1652 0.615234 90.586V21.2886C0.615234 18.7082 2.71501 16.6096 5.29424 16.6096H106.58C109.16 16.6096 111.259 18.7082 111.259 21.2886V90.586C111.259 93.1652 109.16 95.265 106.58 95.265ZM5.29424 19.0684C4.06978 19.0684 3.07398 20.0642 3.07398 21.2886V90.586C3.07398 91.8105 4.06978 92.8075 5.29424 92.8075H106.58C107.804 92.8063 108.8 91.8105 108.8 90.586V21.2886C108.8 20.0642 107.804 19.0684 106.58 19.0684H5.29424V19.0684Z" fill="#101F2E"/>
<path d="M100.538 87.9256H11.3368C9.4731 87.9256 7.95605 86.4086 7.95605 84.5436V27.331C7.95605 25.466 9.4731 23.9502 11.3368 23.9502H100.539C102.404 23.9502 103.92 25.4672 103.92 27.331V84.5436C103.919 86.4074 102.403 87.9256 100.538 87.9256ZM11.3368 26.4077C10.8279 26.4077 10.4148 26.822 10.4148 27.3297V84.5424C10.4148 85.0514 10.8279 85.4656 11.3368 85.4656H100.539C101.047 85.4656 101.461 85.0514 101.461 84.5424V27.331C101.461 26.822 101.047 26.4089 100.539 26.4089H11.3368V26.4077Z" fill="#101F2E"/>
<path d="M74.8302 43.5132H74.3827C73.7029 43.5132 73.1533 42.9624 73.1533 42.2838C73.1533 41.6052 73.7029 41.0544 74.3827 41.0544H74.8302C75.51 41.0544 76.0596 41.6052 76.0596 42.2838C76.0596 42.9624 75.51 43.5132 74.8302 43.5132Z" fill="#101F2E"/>
<path d="M74.8302 50.1101H74.3827C73.7029 50.1101 73.1533 49.5594 73.1533 48.8807C73.1533 48.2021 73.7029 47.6514 74.3827 47.6514H74.8302C75.51 47.6514 76.0596 48.2021 76.0596 48.8807C76.0596 49.5594 75.51 50.1101 74.8302 50.1101Z" fill="#101F2E"/>
<path d="M74.8302 56.7068H74.3827C73.7029 56.7068 73.1533 56.156 73.1533 55.4774C73.1533 54.7988 73.7029 54.248 74.3827 54.248H74.8302C75.51 54.248 76.0596 54.7988 76.0596 55.4774C76.0596 56.156 75.51 56.7068 74.8302 56.7068Z" fill="#101F2E"/>
<path d="M74.8302 63.3049H74.3827C73.7029 63.3049 73.1533 62.7554 73.1533 62.0756C73.1533 61.3957 73.7029 60.8462 74.3827 60.8462H74.8302C75.51 60.8462 76.0596 61.3957 76.0596 62.0756C76.0596 62.7554 75.51 63.3049 74.8302 63.3049Z" fill="#101F2E"/>
<path d="M89.1252 43.5132H80.9794C80.2995 43.5132 79.75 42.9624 79.75 42.2838C79.75 41.6052 80.2995 41.0544 80.9794 41.0544H89.1252C89.8051 41.0544 90.3546 41.6052 90.3546 42.2838C90.3546 42.9624 89.8051 43.5132 89.1252 43.5132Z" fill="#101F2E"/>
<path d="M89.1252 50.1101H80.9794C80.2995 50.1101 79.75 49.5594 79.75 48.8807C79.75 48.2021 80.2995 47.6514 80.9794 47.6514H89.1252C89.8051 47.6514 90.3546 48.2021 90.3546 48.8807C90.3546 49.5594 89.8051 50.1101 89.1252 50.1101Z" fill="#101F2E"/>
<path d="M89.1252 56.7068H80.9794C80.2995 56.7068 79.75 56.156 79.75 55.4774C79.75 54.7988 80.2995 54.248 80.9794 54.248H89.1252C89.8051 54.248 90.3546 54.7988 90.3546 55.4774C90.3546 56.156 89.8051 56.7068 89.1252 56.7068Z" fill="#101F2E"/>
<path d="M89.1252 63.3049H80.9794C80.2995 63.3049 79.75 62.7554 79.75 62.0756C79.75 61.3957 80.2995 60.8462 80.9794 60.8462H89.1252C89.8051 60.8462 90.3546 61.3957 90.3546 62.0756C90.3546 62.7554 89.8051 63.3049 89.1252 63.3049Z" fill="#101F2E"/>
<path d="M81.8548 36.5833H81.6532C80.9734 36.5833 80.4238 36.0325 80.4238 35.3539C80.4238 34.6753 80.9734 34.1245 81.6532 34.1245H81.8548C82.5347 34.1245 83.0842 34.6753 83.0842 35.3539C83.0842 36.0325 82.5347 36.5833 81.8548 36.5833Z" fill="#101F2E"/>
<path d="M93.8181 70.3739H69.6916C68.5138 70.3739 67.5562 69.4162 67.5562 68.2385V36.121C67.5562 34.9433 68.5138 33.9844 69.6916 33.9844H76.1212C76.8011 33.9844 77.3506 34.5351 77.3506 35.2138C77.3506 35.8924 76.8011 36.4431 76.1212 36.4431H70.0137V67.9151H93.4947V36.4431H87.3872C86.7074 36.4431 86.1578 35.8924 86.1578 35.2138C86.1578 34.5351 86.7074 33.9844 87.3872 33.9844H93.8168C94.9946 33.9844 95.9523 34.9433 95.9523 36.121V68.2385C95.9535 69.4162 94.9958 70.3739 93.8181 70.3739Z" fill="#101F2E"/>
<path d="M49.8995 39.1331C49.3143 39.1331 48.7955 38.7139 48.6898 38.1176C48.5718 37.4489 49.0181 36.8108 49.6868 36.6928L49.843 36.6658C50.5167 36.5502 51.1498 36.994 51.2678 37.6628C51.3858 38.3316 50.9396 38.9696 50.2708 39.0876L50.1147 39.1147C50.0434 39.127 49.9708 39.1331 49.8995 39.1331Z" fill="#101F2E"/>
<path d="M44.9035 54.1744C43.9815 54.1744 43.1615 53.513 42.9943 52.5762L40.7753 40.1423C40.6843 39.6321 40.7974 39.117 41.0937 38.6917C41.39 38.2663 41.835 37.9823 42.3452 37.8926L45.4026 37.3467C46.0739 37.2262 46.7095 37.6725 46.8287 38.3413C46.948 39.0101 46.5029 39.6481 45.8342 39.7674L43.2857 40.2222L45.3227 51.6333L59.1016 49.1733L57.0645 37.7622L54.516 38.2171C53.8435 38.3401 53.2092 37.8913 53.0899 37.2226C52.9707 36.5538 53.4157 35.9157 54.0845 35.7965L57.1444 35.2506C57.6558 35.1584 58.1697 35.2728 58.5951 35.569C59.0204 35.8653 59.3044 36.3104 59.3942 36.8205L61.6144 49.252C61.7054 49.7634 61.5911 50.2773 61.2948 50.7026C60.9985 51.128 60.5535 51.412 60.042 51.503L45.2441 54.1449C45.1297 54.1646 45.0154 54.1744 44.9035 54.1744Z" fill="#101F2E"/>
<path d="M41.4836 65.3285C41.3348 65.3285 41.1824 65.3015 41.0361 65.2437L40.8886 65.1859C40.2567 64.9388 39.9444 64.2258 40.1928 63.5927C40.4411 62.962 41.1554 62.651 41.786 62.8981L41.9335 62.9559C42.5654 63.203 42.8777 63.916 42.6294 64.5491C42.4388 65.031 41.9753 65.3285 41.4836 65.3285Z" fill="#101F2E"/>
<path d="M43.6113 81.0657C43.379 81.0657 43.1417 81.0239 42.913 80.9354L28.9019 75.4782C27.9048 75.0897 27.4106 73.9624 27.7991 72.9666L32.3822 61.199C32.5691 60.7159 32.9342 60.336 33.41 60.127C33.8857 59.9168 34.4107 59.9082 34.8951 60.0963L37.7902 61.2236C38.4234 61.4695 38.7369 62.1813 38.4897 62.8144C38.2426 63.4476 37.5308 63.7623 36.8977 63.5139L34.4857 62.5747L30.2788 73.376L43.3212 78.4558L47.5281 67.6545L45.1148 66.714C44.4829 66.4681 44.1695 65.7551 44.4166 65.122C44.6624 64.4888 45.373 64.1741 46.0086 64.4237L48.905 65.5522C49.3869 65.7379 49.768 66.103 49.977 66.5788C50.1848 67.0533 50.1959 67.5795 50.009 68.0626L45.4247 79.8314C45.1235 80.5973 44.3871 81.0657 43.6113 81.0657ZM48.0088 67.8426L48.01 67.8438L48.0088 67.8426Z" fill="#101F2E"/>
<path d="M26.8061 40.435C26.7151 40.435 26.6229 40.4251 26.5295 40.4042L26.3758 40.3686C25.7132 40.2161 25.3001 39.5572 25.4525 38.8958C25.605 38.2332 26.2652 37.8225 26.9253 37.9725L27.079 38.0082C27.7416 38.1606 28.1547 38.8196 28.0023 39.481C27.872 40.0489 27.3667 40.435 26.8061 40.435Z" fill="#101F2E"/>
<path d="M31.0904 55.7074C30.9441 55.7074 30.7966 55.6914 30.6503 55.657L15.9998 52.2848C14.9586 52.0463 14.3058 51.0038 14.5443 49.9601L17.3767 37.6516C17.6152 36.6103 18.6516 35.9563 19.7015 36.196L22.7307 36.8931C23.3921 37.0455 23.8051 37.7057 23.6527 38.3671C23.5003 39.0297 22.8401 39.4416 22.1787 39.2891L19.656 38.7089L17.0559 50.0043L30.6958 53.1442L33.2947 41.8487L30.772 41.2684C30.1106 41.116 29.6975 40.4558 29.85 39.7944C30.0024 39.133 30.6638 38.7211 31.324 38.8724L34.3532 39.5694C34.8572 39.685 35.2875 39.9911 35.5617 40.43C35.8358 40.8689 35.9243 41.3901 35.8075 41.8954L32.975 54.2014C32.8583 54.7067 32.5521 55.1358 32.1133 55.4111C31.8035 55.6066 31.4506 55.7074 31.0904 55.7074Z" fill="#101F2E"/>
</svg>
