<svg width="133" height="106" viewBox="0 0 133 106" fill="none" xmlns="http://www.w3.org/2000/svg">
<path d="M71.4445 95.9124H30.6579C29.8534 95.9124 29.2012 95.2588 29.2012 94.4513V19.9441C29.2012 17.5276 31.1615 15.5615 33.5713 15.5615H68.5309C70.9409 15.5615 72.9013 17.5276 72.9013 19.9441V47.7016C72.9013 48.5081 72.2496 49.1626 71.4445 49.1626C70.6394 49.1626 69.9877 48.5081 69.9877 47.7016V19.9441C69.9877 19.1389 69.3347 18.4831 68.5309 18.4831H33.5713C32.7682 18.4831 32.1146 19.1389 32.1146 19.9441V92.9903H69.9877V63.7714C69.9877 62.9648 70.6394 62.3108 71.4445 62.3108C72.2496 62.3108 72.9013 62.9648 72.9013 63.7714V94.4513C72.9013 95.2588 72.2496 95.9124 71.4445 95.9124" fill="#101F2E"/>
<path d="M67.0751 72.5376H35.0279C34.2235 72.5376 33.5713 71.8845 33.5713 71.077V24.3273C33.5713 23.5203 34.2235 22.8662 35.0279 22.8662H67.0751C67.8797 22.8662 68.531 23.5203 68.531 24.3273V47.7017C68.531 48.5082 67.8797 49.1627 67.0751 49.1627C66.2708 49.1627 65.6183 48.5082 65.6183 47.7017V25.7878H36.4847V69.616H65.6183V63.7715C65.6183 62.965 66.2708 62.3109 67.0751 62.3109C67.8797 62.3109 68.531 62.965 68.531 63.7715V71.077C68.531 71.8845 67.8797 72.5376 67.0751 72.5376Z" fill="#101F2E"/>
<path d="M27.862 100.295H74.2399L70.7446 95.9124H31.3579L27.862 100.295ZM77.2714 103.217H24.8313C24.2715 103.217 23.7608 102.894 23.5182 102.39C23.2757 101.883 23.344 101.283 23.6939 100.843L29.5207 93.5382C29.7966 93.1918 30.2156 92.9904 30.658 92.9904H71.4447C71.8871 92.9904 72.3052 93.1918 72.5827 93.5382L78.4094 100.843C78.7592 101.283 78.8262 101.883 78.5845 102.39C78.3412 102.894 77.8318 103.217 77.2714 103.217" fill="#101F2E"/>
<path d="M44.4968 51.3538C44.124 51.3538 43.7513 51.211 43.4668 50.926C42.8978 50.3552 42.8978 49.4308 43.4668 48.8599L56.5772 35.7121C57.146 35.1412 58.0677 35.1412 58.6369 35.7121C59.2057 36.2826 59.2057 37.2069 58.6369 37.7778L45.5267 50.926C45.242 51.211 44.8692 51.3538 44.4968 51.3538Z" fill="#101F2E"/>
<path d="M44.4968 60.1194C44.124 60.1194 43.7513 59.9767 43.4668 59.6912C42.8978 59.1208 42.8978 58.196 43.4668 57.6255L56.5772 44.4773C57.146 43.9068 58.0677 43.9068 58.6369 44.4773C59.2057 45.0482 59.2057 45.9725 58.6369 46.543L45.5267 59.6912C45.242 59.9767 44.8692 60.1194 44.4968 60.1194Z" fill="#101F2E"/>
<path d="M92.1299 23.3717C89.1955 23.3717 86.8082 25.7664 86.8082 28.7098C86.8082 31.6532 89.1955 34.0474 92.1299 34.0474C95.0648 34.0474 97.4535 31.6532 97.4535 28.7098C97.4535 25.7664 95.0648 23.3717 92.1299 23.3717ZM92.1299 36.9695C87.5893 36.9695 83.895 33.2645 83.895 28.7098C83.895 24.1552 87.5893 20.4502 92.1299 20.4502C96.6723 20.4502 100.367 24.1552 100.367 28.7098C100.367 33.2645 96.6723 36.9695 92.1299 36.9695Z" fill="#101F2E"/>
<path d="M87.0312 103.215C83.4167 103.215 80.4761 100.595 80.4761 97.3735V47.7017C80.4761 46.8947 81.1278 46.2407 81.9329 46.2407C82.738 46.2407 83.3897 46.8947 83.3897 47.7017V97.3735C83.3897 98.9839 85.0225 100.294 87.0312 100.294C89.0399 100.294 90.6732 98.9839 90.6732 97.3735V71.0757C90.6732 70.2678 91.3244 69.6147 92.1295 69.6147C92.9351 69.6147 93.5863 70.2678 93.5863 71.0757V97.3735C93.5863 100.595 90.6461 103.215 87.0312 103.215Z" fill="#101F2E"/>
<path d="M97.2285 103.217C93.6135 103.215 90.6733 100.593 90.6733 97.3734C90.6733 96.5656 91.3246 95.9124 92.1297 95.9124C92.9352 95.9124 93.5865 96.5656 93.5865 97.3734C93.5865 98.9838 95.2211 100.294 97.2298 100.295C99.2368 100.295 100.87 98.9838 100.87 97.3734V47.7016C100.87 46.8946 101.522 46.2406 102.327 46.2406C103.132 46.2406 103.784 46.8946 103.784 47.7016V97.3734C103.784 100.596 100.843 103.217 97.2285 103.217" fill="#101F2E"/>
<path d="M104.775 68.4182C103.501 68.4182 102.279 67.922 101.355 66.9968C100.79 66.4308 100.756 65.486 101.314 64.9129C101.869 64.3411 102.753 64.2917 103.332 64.8479C103.899 65.4157 104.6 65.6033 105.284 65.4322C106.111 65.2263 106.712 64.3758 106.712 63.4114V44.1514C106.712 42.5401 105.406 41.2294 103.799 41.2294H80.754C79.1478 41.2294 77.8404 42.5401 77.8404 44.1514V52.0843C77.8404 52.8913 77.1891 53.5453 76.384 53.5453H68.8088C67.6038 53.5453 66.6236 54.5284 66.6236 55.7368C66.6236 56.9449 67.6038 57.9279 68.8088 57.9279H81.9332C82.7383 57.9279 83.39 58.5819 83.39 59.3889C83.39 60.1959 82.7383 60.8499 81.9332 60.8499H68.8088C65.998 60.8499 63.7104 58.5557 63.7104 55.7368C63.7104 52.9175 65.998 50.6233 68.8088 50.6233H74.9272V44.1514C74.9272 40.9293 77.5402 38.3078 80.754 38.3078H103.799C107.013 38.3078 109.626 40.9293 109.626 44.1514V63.4114C109.626 65.7354 108.129 67.7322 105.988 68.2679C105.585 68.3684 105.176 68.4182 104.775 68.4182" fill="#101F2E"/>
</svg>
